<mxfile host="app.diagrams.net" modified="2024-03-24T12:57:30.159Z" agent="Mozilla/5.0 (Windows NT 10.0; Win64; x64) AppleWebKit/537.36 (KHTML, like Gecko) Chrome/122.0.0.0 Safari/537.36 Edg/122.0.0.0" etag="JquLST8RyqmbIIlVP89s" version="24.1.0" type="github">
  <diagram id="6a731a19-8d31-9384-78a2-239565b7b9f0" name="Page-1">
    <mxGraphModel dx="901" dy="641" grid="1" gridSize="10" guides="1" tooltips="1" connect="1" arrows="1" fold="1" page="1" pageScale="1" pageWidth="1169" pageHeight="827" background="none" math="0" shadow="0">
      <root>
        <mxCell id="0" />
        <mxCell id="1" parent="0" />
        <mxCell id="3j2kpjW4YvBZOmOv4Ws0-55" value="" style="ellipse;whiteSpace=wrap;html=1;aspect=fixed;fillColor=#050505;" vertex="1" parent="1">
          <mxGeometry x="90" y="405" width="30" height="30" as="geometry" />
        </mxCell>
        <mxCell id="3j2kpjW4YvBZOmOv4Ws0-58" value="" style="group" vertex="1" connectable="0" parent="1">
          <mxGeometry x="170" y="380" width="260" height="80" as="geometry" />
        </mxCell>
        <mxCell id="3j2kpjW4YvBZOmOv4Ws0-56" value="" style="rhombus;whiteSpace=wrap;html=1;" vertex="1" parent="3j2kpjW4YvBZOmOv4Ws0-58">
          <mxGeometry width="260" height="80" as="geometry" />
        </mxCell>
        <mxCell id="3j2kpjW4YvBZOmOv4Ws0-57" value="用户是否登录" style="text;html=1;align=center;verticalAlign=middle;whiteSpace=wrap;rounded=0;" vertex="1" parent="3j2kpjW4YvBZOmOv4Ws0-58">
          <mxGeometry x="70" y="30" width="130" height="30" as="geometry" />
        </mxCell>
        <mxCell id="3j2kpjW4YvBZOmOv4Ws0-61" style="edgeStyle=orthogonalEdgeStyle;rounded=0;orthogonalLoop=1;jettySize=auto;html=1;exitX=1;exitY=0.25;exitDx=0;exitDy=0;" edge="1" parent="1" source="3j2kpjW4YvBZOmOv4Ws0-59">
          <mxGeometry relative="1" as="geometry">
            <mxPoint x="360" y="535.1904761904761" as="targetPoint" />
          </mxGeometry>
        </mxCell>
        <mxCell id="3j2kpjW4YvBZOmOv4Ws0-62" value="" style="group" vertex="1" connectable="0" parent="1">
          <mxGeometry x="240" y="510" width="120" height="60" as="geometry" />
        </mxCell>
        <mxCell id="3j2kpjW4YvBZOmOv4Ws0-59" value="" style="rounded=0;whiteSpace=wrap;html=1;" vertex="1" parent="3j2kpjW4YvBZOmOv4Ws0-62">
          <mxGeometry width="120" height="60" as="geometry" />
        </mxCell>
        <mxCell id="3j2kpjW4YvBZOmOv4Ws0-60" value="用户登录" style="text;html=1;align=center;verticalAlign=middle;whiteSpace=wrap;rounded=0;" vertex="1" parent="3j2kpjW4YvBZOmOv4Ws0-62">
          <mxGeometry x="30" y="15" width="60" height="30" as="geometry" />
        </mxCell>
        <mxCell id="3j2kpjW4YvBZOmOv4Ws0-63" value="" style="endArrow=classic;html=1;rounded=0;entryX=0.5;entryY=0;entryDx=0;entryDy=0;" edge="1" parent="1" target="3j2kpjW4YvBZOmOv4Ws0-59">
          <mxGeometry width="50" height="50" relative="1" as="geometry">
            <mxPoint x="300" y="460" as="sourcePoint" />
            <mxPoint x="640" y="620" as="targetPoint" />
          </mxGeometry>
        </mxCell>
        <mxCell id="3j2kpjW4YvBZOmOv4Ws0-64" value="否" style="text;html=1;align=center;verticalAlign=middle;whiteSpace=wrap;rounded=0;" vertex="1" parent="1">
          <mxGeometry x="290" y="460" width="60" height="30" as="geometry" />
        </mxCell>
        <mxCell id="3j2kpjW4YvBZOmOv4Ws0-65" value="" style="endArrow=classic;html=1;rounded=0;exitX=1;exitY=0.5;exitDx=0;exitDy=0;entryX=0;entryY=0.5;entryDx=0;entryDy=0;" edge="1" parent="1" source="3j2kpjW4YvBZOmOv4Ws0-55" target="3j2kpjW4YvBZOmOv4Ws0-56">
          <mxGeometry width="50" height="50" relative="1" as="geometry">
            <mxPoint x="470" y="570" as="sourcePoint" />
            <mxPoint x="520" y="520" as="targetPoint" />
          </mxGeometry>
        </mxCell>
        <mxCell id="3j2kpjW4YvBZOmOv4Ws0-69" value="" style="group" vertex="1" connectable="0" parent="1">
          <mxGeometry x="430" y="290" width="120" height="60" as="geometry" />
        </mxCell>
        <mxCell id="3j2kpjW4YvBZOmOv4Ws0-67" value="" style="rounded=0;whiteSpace=wrap;html=1;" vertex="1" parent="3j2kpjW4YvBZOmOv4Ws0-69">
          <mxGeometry width="120" height="60" as="geometry" />
        </mxCell>
        <mxCell id="3j2kpjW4YvBZOmOv4Ws0-68" value="选择用户 / 企业" style="text;html=1;align=center;verticalAlign=middle;whiteSpace=wrap;rounded=0;" vertex="1" parent="3j2kpjW4YvBZOmOv4Ws0-69">
          <mxGeometry x="20" y="20" width="90" height="30" as="geometry" />
        </mxCell>
        <mxCell id="3j2kpjW4YvBZOmOv4Ws0-71" value="" style="group" vertex="1" connectable="0" parent="1">
          <mxGeometry x="640" y="180" width="120" height="60" as="geometry" />
        </mxCell>
        <mxCell id="3j2kpjW4YvBZOmOv4Ws0-72" value="" style="rounded=0;whiteSpace=wrap;html=1;" vertex="1" parent="3j2kpjW4YvBZOmOv4Ws0-71">
          <mxGeometry width="120" height="60" as="geometry" />
        </mxCell>
        <mxCell id="3j2kpjW4YvBZOmOv4Ws0-73" value="查看用户主页" style="text;html=1;align=center;verticalAlign=middle;whiteSpace=wrap;rounded=0;" vertex="1" parent="3j2kpjW4YvBZOmOv4Ws0-71">
          <mxGeometry x="30" y="20" width="60" height="30" as="geometry" />
        </mxCell>
        <mxCell id="3j2kpjW4YvBZOmOv4Ws0-74" value="" style="group" vertex="1" connectable="0" parent="1">
          <mxGeometry x="440" y="480" width="120" height="60" as="geometry" />
        </mxCell>
        <mxCell id="3j2kpjW4YvBZOmOv4Ws0-75" value="" style="rounded=0;whiteSpace=wrap;html=1;" vertex="1" parent="3j2kpjW4YvBZOmOv4Ws0-74">
          <mxGeometry width="120" height="60" as="geometry" />
        </mxCell>
        <mxCell id="3j2kpjW4YvBZOmOv4Ws0-76" value="进入需求平台" style="text;html=1;align=center;verticalAlign=middle;whiteSpace=wrap;rounded=0;" vertex="1" parent="3j2kpjW4YvBZOmOv4Ws0-74">
          <mxGeometry x="30" y="20" width="60" height="30" as="geometry" />
        </mxCell>
        <mxCell id="3j2kpjW4YvBZOmOv4Ws0-77" value="" style="group" vertex="1" connectable="0" parent="1">
          <mxGeometry x="450" y="550" width="260" height="80" as="geometry" />
        </mxCell>
        <mxCell id="3j2kpjW4YvBZOmOv4Ws0-78" value="" style="rhombus;whiteSpace=wrap;html=1;" vertex="1" parent="3j2kpjW4YvBZOmOv4Ws0-77">
          <mxGeometry width="260" height="80" as="geometry" />
        </mxCell>
        <mxCell id="3j2kpjW4YvBZOmOv4Ws0-79" value="是否是企业" style="text;html=1;align=center;verticalAlign=middle;whiteSpace=wrap;rounded=0;" vertex="1" parent="3j2kpjW4YvBZOmOv4Ws0-77">
          <mxGeometry x="70" y="30" width="130" height="30" as="geometry" />
        </mxCell>
        <mxCell id="3j2kpjW4YvBZOmOv4Ws0-80" value="" style="group" vertex="1" connectable="0" parent="1">
          <mxGeometry x="640" y="270" width="120" height="60" as="geometry" />
        </mxCell>
        <mxCell id="3j2kpjW4YvBZOmOv4Ws0-81" value="" style="rounded=0;whiteSpace=wrap;html=1;" vertex="1" parent="3j2kpjW4YvBZOmOv4Ws0-80">
          <mxGeometry width="120" height="60" as="geometry" />
        </mxCell>
        <mxCell id="3j2kpjW4YvBZOmOv4Ws0-82" value="编辑待发送消息" style="text;html=1;align=center;verticalAlign=middle;whiteSpace=wrap;rounded=0;" vertex="1" parent="3j2kpjW4YvBZOmOv4Ws0-80">
          <mxGeometry x="30" y="20" width="60" height="30" as="geometry" />
        </mxCell>
        <mxCell id="3j2kpjW4YvBZOmOv4Ws0-83" value="" style="group" vertex="1" connectable="0" parent="1">
          <mxGeometry x="640" y="360" width="120" height="60" as="geometry" />
        </mxCell>
        <mxCell id="3j2kpjW4YvBZOmOv4Ws0-84" value="" style="rounded=0;whiteSpace=wrap;html=1;" vertex="1" parent="3j2kpjW4YvBZOmOv4Ws0-83">
          <mxGeometry width="120" height="60" as="geometry" />
        </mxCell>
        <mxCell id="3j2kpjW4YvBZOmOv4Ws0-85" value="关注 / 取关用户" style="text;html=1;align=center;verticalAlign=middle;whiteSpace=wrap;rounded=0;" vertex="1" parent="3j2kpjW4YvBZOmOv4Ws0-83">
          <mxGeometry x="20" y="20" width="90" height="30" as="geometry" />
        </mxCell>
        <mxCell id="3j2kpjW4YvBZOmOv4Ws0-86" value="" style="group" vertex="1" connectable="0" parent="1">
          <mxGeometry x="800" y="240" width="120" height="60" as="geometry" />
        </mxCell>
        <mxCell id="3j2kpjW4YvBZOmOv4Ws0-87" value="" style="rounded=0;whiteSpace=wrap;html=1;" vertex="1" parent="3j2kpjW4YvBZOmOv4Ws0-86">
          <mxGeometry width="120" height="60" as="geometry" />
        </mxCell>
        <mxCell id="3j2kpjW4YvBZOmOv4Ws0-88" value="点击发送" style="text;html=1;align=center;verticalAlign=middle;whiteSpace=wrap;rounded=0;" vertex="1" parent="3j2kpjW4YvBZOmOv4Ws0-86">
          <mxGeometry x="30" y="20" width="60" height="30" as="geometry" />
        </mxCell>
        <mxCell id="3j2kpjW4YvBZOmOv4Ws0-89" value="交互结束" style="rounded=1;whiteSpace=wrap;html=1;" vertex="1" parent="1">
          <mxGeometry x="950" y="420" width="130" height="60" as="geometry" />
        </mxCell>
      </root>
    </mxGraphModel>
  </diagram>
</mxfile>
